{"title":"Into the Wild 2007 DVDrip English Klam","uid":6842332,"size":2314697471,"categoryP":"video","categoryS":"movies","magnet":"?xt=urn:btih:bb3c3c34220ad1336563358fb884f39ead85d220&amp;dn=Into+the+Wild+2007+DVDrip+English+Klam&amp;tr=udp%3A%2F%2Ftracker.openbittorrent.com%3A80&amp;tr=udp%3A%2F%2Fopen.demonii.com%3A1337&amp;tr=udp%3A%2F%2Ftracker.coppersurfer.tk%3A6969&amp;tr=udp%3A%2F%2Fexodus.desync.com%3A6969","seeders":0,"leechers":1,"uploader":"Klambake","files":-1,"time":1322214470,"description":"With: Emile Hirsch, Catherine Keener and Marcia Gay Harden\n\nChristopher McCandless (Emile Hirsch) laat zijn leventje voor wat het is en vertrekt naar de wildernis van Alaska. Zijn kaart van het gebied gooit hij weg, en zijn voedselvoorraad lijkt bij lange na niet voldoende te zijn. Een verhaal over de aantrekkingskracht van de natuur en complexe relaties tussen een vader en zoon.\n\nAfter graduating from Emory University, top student and athlete Christopher McCandless abandons his possessions, gives his entire $24,000 savings account to charity and hitchhikes to Alaska to live in the wilderness. Along the way, Christopher encounters a series of characters that shape his life. \n\n------------------ Dutch Friends ------------------\nYou can find my Friends at: http://www.Film-Test.nl \n------ They got my dutch subs ----- and more ------\n\nGeneral:\n\nComplete name                    : Into the Wild\\Into the Wild.avi\nFormat                           : AVI\nFormat/Info                      : Audio Video Interleave\nFile size                        : 2.16 GiB\nDuration                         : 2h 20mn\nOverall bit rate                 : 2 197 Kbps\n\nVideo:\n\nFormat                           : MPEG-4 Visual\nFormat profile                   : Simple@L3\nFormat settings, BVOP            : No\nFormat settings, QPel            : No\nFormat settings, GMC             : No warppoints\nFormat settings, Matrix          : Default (H.263)\nCodec ID                         : XVID\nCodec ID/Hint                    : XviD\nDuration                         : 2h 20mn\nBit rate                         : 1 738 Kbps\nWidth                            : 720 pixels\nHeight                           : 304 pixels\nDisplay aspect ratio             : 2.35:1\nFrame rate                       : 25.000 fps\nColor space                      : YUV\nChroma subsampling               : 4:2:0\nBit depth                        : 8 bits\nScan type                        : Progressive\nCompression mode                 : Lossy\nBits/(Pixel*Frame)               : 0.318\nStream size                      : 1.71 GiB (79%)\nWriting library                  : XviD 1.1.2 (UTC 2006-11-01)\n\nAudio:\n\nFormat                           : AC-3\nFormat/Info                      : Audio Coding 3\nMode extension                   : CM (complete main)\nCodec ID                         : 2000\nDuration                         : 2h 20mn\nBit rate mode                    : Constant\nBit rate                         : 448 Kbps\nChannel(s)                       : 6 channels\nChannel positions                : Front: L C R, Side: L R, LFE\nSampling rate                    : 48.0 KHz\nBit depth                        : 16 bits\nCompression mode                 : Lossy\nStream size                      : 450 MiB (20%)\nAlignment                        : Aligned on interleaves\nInterleave, duration             : 32 ms (0.80 video frame)\nInterleave, preload duration     : 160 ms\n\n","torrent":{"xt":"urn:btih:bb3c3c34220ad1336563358fb884f39ead85d220","amp;dn":"Into+the+Wild+2007+DVDrip+English+Klam","amp;tr":["udp%3A%2F%2Ftracker.openbittorrent.com%3A80","udp%3A%2F%2Fopen.demonii.com%3A1337","udp%3A%2F%2Ftracker.coppersurfer.tk%3A6969","udp%3A%2F%2Fexodus.desync.com%3A6969"],"infoHash":"bb3c3c34220ad1336563358fb884f39ead85d220","infoHashBuffer":{"type":"Buffer","data":[187,60,60,52,34,10,209,51,101,99,53,143,184,132,243,158,173,133,210,32]},"announce":[],"urlList":[]}}